<svg xmlns="http://www.w3.org/2000/svg" xmlns:xlink="http://www.w3.org/1999/xlink" viewBox="0 0 1264.91 560.43"><defs><style>.cls-1,.cls-10,.cls-12,.cls-17,.cls-8{fill:none;}.cls-2{clip-path:url(#clip-path);}.cls-13,.cls-15,.cls-3,.cls-4,.cls-7{fill:#fff;}.cls-12,.cls-13,.cls-14,.cls-15,.cls-16,.cls-17,.cls-18,.cls-3,.cls-4,.cls-6,.cls-7,.cls-8,.cls-9{stroke:#335294;}.cls-10,.cls-14,.cls-16,.cls-17,.cls-18,.cls-3,.cls-6,.cls-8,.cls-9{stroke-miterlimit:10;}.cls-12,.cls-3,.cls-4,.cls-6,.cls-7,.cls-8{stroke-width:1.51px;}.cls-12,.cls-13,.cls-15,.cls-4,.cls-7{stroke-linejoin:round;}.cls-5{fill:#335294;}.cls-16,.cls-6{fill:#7cb7ff;}.cls-7{stroke-linecap:round;}.cls-14,.cls-9{fill:#0080ff;}.cls-9{stroke-width:1.51px;}.cls-10{stroke:#fff;stroke-width:3.03px;}.cls-11,.cls-18{fill:#ffce00;}.cls-13{stroke-width:1.51px;}.cls-14{font-size:191px;stroke-width:1.51px;}.cls-14,.cls-18{font-family:Poppins-Black, Poppins;font-weight:800;}.cls-15,.cls-16,.cls-17{stroke-width:1.13px;}.cls-18{font-size:337px;stroke-width:3px;}</style><clipPath id="clip-path" transform="translate(-63.25 -122.61)"><rect class="cls-1" x="397.87" y="38.31" width="882.13" height="620.69" rx="41"/></clipPath></defs><g id="Persona"><g class="cls-2"><path class="cls-3" d="M1221.21,366.57c-12.44-21.36-7.67-66.31-7.67-66.31l-2.79,2.56c12.46-32.59,2-45.76,2-45.76C1182,211.27,1136,241.54,1136,241.54s-33.78,5.4-21.29,45.77a33,33,0,0,1,1.17,8.56c-.1.36-5.32,19.51-7.17,23.1-1.34,2.61,5.42,6.2,9.34,8,8.75,38.22,10.72,36.86,10.72,36.86,15.45.74,27.77-1.79,37.75-6.27,1.37,7.19,2.78,14.92,2.78,14.92,3.32,26.32-33.83,43.25-33.83,43.25l70.5,26.63,70.06-44.7S1236.37,392.59,1221.21,366.57Z" transform="translate(-63.25 -122.61)"/><polygon class="cls-4" points="805.37 478.71 1041.05 457.29 1177.97 495.53 1178.6 505.27 942.92 526.69 806 488.44 805.37 478.71"/><polygon class="cls-4" points="811.76 479.6 1042.67 466.05 1007.36 321.22 1007.36 321.22 781.66 331.75 811.76 479.6"/><path class="cls-5" d="M967.83,454a2.54,2.54,0,1,1-3.11-2.31A2.75,2.75,0,0,1,967.83,454Z" transform="translate(-63.25 -122.61)"/><polygon class="cls-4" points="781.66 331.75 1007.36 321.22 781.66 331.75 811.76 479.6 805.39 478.96 777.38 336.24 781.66 331.75"/><polygon class="cls-6" points="799.13 343.53 996.51 334.23 1022.8 448.68 824.63 466.46 799.13 343.53"/><polygon class="cls-4" points="805.37 478.71 942.29 516.95 1177.97 495.53 1041.05 457.29 805.37 478.71"/><polygon class="cls-4" points="907.05 500.81 838.8 481.75 1040.49 463.43 1106.78 481.94 907.05 500.81"/><line class="cls-4" x1="853.34" y1="485.81" x2="1055.75" y2="467.69"/><line class="cls-4" x1="870.34" y1="490.61" x2="1072.75" y2="472.48"/><line class="cls-4" x1="887.34" y1="495.4" x2="1089.75" y2="477.27"/><line class="cls-4" x1="863.2" y1="479.79" x2="930.07" y2="498.38"/><line class="cls-7" x1="885.82" y1="477.82" x2="952.68" y2="496.42"/><line class="cls-7" x1="905.24" y1="475.93" x2="972.11" y2="494.53"/><line class="cls-7" x1="924.66" y1="474.04" x2="991.53" y2="492.63"/><line class="cls-7" x1="944.09" y1="472.14" x2="1010.96" y2="490.74"/><line class="cls-7" x1="964.4" y1="470.5" x2="1030.38" y2="488.85"/><line class="cls-7" x1="983.74" y1="468.58" x2="1050.39" y2="487.12"/><line class="cls-7" x1="1003.51" y1="466.79" x2="1069.84" y2="485.23"/><line class="cls-7" x1="1023.59" y1="465.08" x2="1089.24" y2="483.33"/><path class="cls-4" d="M970.67,481.57l74.1-4.45a1.25,1.25,0,0,1,1.25.94l7.38,29.6a1.25,1.25,0,0,1-1.1,1.54l-61,4.47a1.22,1.22,0,0,0-.72.32l-9.35,10.8a1.23,1.23,0,0,1-2.05-.7L969.51,483A1.23,1.23,0,0,1,970.67,481.57Z" transform="translate(-63.25 -122.61)"/><polygon class="cls-4" points="918.62 414.77 994.87 408.89 999.95 426.45 996.41 426.83 992.94 427.2 923.16 433.46 918.62 414.77"/><polygon class="cls-4" points="904.97 433.34 888.01 359.51 834.89 361.7 827.29 366.67 843.35 444.08 897.38 438.3 904.97 433.34"/><polygon class="cls-4" points="834.89 361.7 888.01 359.51 904.97 433.34 850.95 439.12 834.89 361.7"/><line class="cls-3" x1="843.35" y1="444.08" x2="850.95" y2="439.12"/><path class="cls-5" d="M933.18,482.86,936,498a.45.45,0,0,0,.81.17l2.41-3.55a.54.54,0,0,1,.81-.11l3.3,2.78a.45.45,0,0,0,.73-.44l-3.17-14.3Z" transform="translate(-63.25 -122.61)"/><line class="cls-7" x1="852.83" y1="393.46" x2="886.16" y2="390.86"/><line class="cls-7" x1="853.93" y1="400.61" x2="887.26" y2="398.01"/><line class="cls-7" x1="934.88" y1="368.19" x2="946.1" y2="367.38"/><line class="cls-7" x1="935.24" y1="373.12" x2="976.9" y2="370.95"/><line class="cls-7" x1="935.9" y1="378.33" x2="977.57" y2="376.16"/><path class="cls-4" d="M991.77,495.79c.79,3.46-1,6.82-3.92,7.5s-6-1.59-6.79-5.06,1-6.82,3.92-7.5S991,492.32,991.77,495.79Z" transform="translate(-63.25 -122.61)"/><path class="cls-5" d="M991.49,543.64a1.41,1.41,0,1,1-1.73-1.28A1.53,1.53,0,0,1,991.49,543.64Z" transform="translate(-63.25 -122.61)"/><path class="cls-5" d="M997,543a1.41,1.41,0,1,1-1.72-1.28A1.53,1.53,0,0,1,997,543Z" transform="translate(-63.25 -122.61)"/><path class="cls-5" d="M1002.47,542.4a1.41,1.41,0,1,1-2.72.62,1.41,1.41,0,1,1,2.72-.62Z" transform="translate(-63.25 -122.61)"/><path class="cls-4" d="M1273.69,410.48s-3.08-16.66-4.74,41.57c-1.54,54.52-2.15,111.72-2.15,111.72a184,184,0,0,0-61.15,14.66l-20.46,8.51s53.12,29.42,90.93,41.16c34.81,10.81,38.08-15.76,33.93-80.35C1310.05,547.75,1290.25,415.08,1273.69,410.48Z" transform="translate(-63.25 -122.61)"/><path class="cls-5" d="M1134,227.39s-44.39,23.67-19,47.44l30.16-30.14Z" transform="translate(-63.25 -122.61)"/><path class="cls-5" d="M1200.34,340.8s10-.26,15.94,13.25c0,0-6.55-15.34,4.87-28Z" transform="translate(-63.25 -122.61)"/><path class="cls-5" d="M1134,227.39s-54.28,53.16-21.75,38.26c68-31.12,64.48,47.31,64.48,47.31s9.37-8.53,5.91.4l17.71,27.44s37.84-14.31,39.87-62C1240.89,262.71,1225.05,188.89,1134,227.39Z" transform="translate(-63.25 -122.61)"/><path class="cls-5" d="M1157.28,258.93c1,8.14,0,40.61,14.36,43s-2.47-40.8-2.47-40.8Z" transform="translate(-63.25 -122.61)"/><path class="cls-4" d="M1111.69,433.5c-17.19,77.26-25.14,157.08-25.14,157.08s-34-9.64-66.18-14.84l-35.2-9.45c-1.14-.52-13.34-6.15-17.3-10.07-4.16-4.11-6.45,7.21.09,12.38,2,1.56,3.5,2.94,4.74,4.13l-8.49,1.32a7.56,7.56,0,0,0-3.9,1.86c-5.91,5.36-25.17,23.14-21.53,24.25a7,7,0,0,0,3,.13c-6.59,5.44-7.11,11.11-5.27,11.3,2.76.29,6.24-1.69,9.71-4.5-3,3.52-6.82,11.32-2.6,11.12,5.67-.26,10.42-4.66,14.94-12.11,0,0-1.11,1.93-.62,1.49L954.62,613s6.85,6,11.84,8.81c4.75,2.67,7.53-7.15.8-11.19a23,23,0,0,0,4.39-7.58s18.88,9.13,28.53,1.9l6.31.6c16.5,10.33,100.27,48,111.75,47.13,26.06-2,31-53.2,43.62-165.22C1161.86,487.48,1119.39,398.86,1111.69,433.5Z" transform="translate(-63.25 -122.61)"/><path class="cls-8" d="M1086.55,590.58s-8.12,4.32-9.76,16.32" transform="translate(-63.25 -122.61)"/><path class="cls-9" d="M1292.25,547.34c13.43-2.22,35.13-9.64,35.14-9.72s-8.31-104.81-34.75-135.84c-1.34-2.88-5.79-8.87-20-11-4.21-.62-8.35-1.4-12.31-2.25h0c-13.87-3-25.17-7.13-28.4-9.18,0,0,0,.13,0,.31l-.24-.13a13.19,13.19,0,0,1-.35,6.07c-.1.3-.19.59-.31.88,0,.13-.1.26-.16.38a12.76,12.76,0,0,1-.72,1.43h0c-4.34,7.14-33.06,10-61.78-5.14,0,0-49.33,28-62.48,37.68-20.17,43-28.84,140-28.84,135.54,0-1.23,41.12,20.31,67.83,21.49.14,7.61-6.54,103.84-6.54,103.84s116.17,5.93,167.65-21.45c0,0-20.29-67.57-17.9-86.43C1288.44,571.63,1291.68,552.85,1292.25,547.34Z" transform="translate(-63.25 -122.61)"/><path class="cls-5" d="M1138.74,226.77s-56.89-13.27-53.3,1.37,18.29,27.43,18.29,27.43-16.77-.42-8,8.09,16.16,7.88,16.16,7.88Z" transform="translate(-63.25 -122.61)"/><path class="cls-8" d="M1166.49,357.59s5.85-1.47,16.58-10.8" transform="translate(-63.25 -122.61)"/><path class="cls-10" d="M1177,288.68s-4-73.31-42.48-64.31" transform="translate(-63.25 -122.61)"/><ellipse class="cls-11" cx="1175.91" cy="308.21" rx="24.69" ry="24.09" transform="translate(729.47 1339.26) rotate(-86.31)"/><path class="cls-3" d="M1192.16,308.91c-.63,9.77-8.46,17.22-17.49,16.64s-15.83-9-15.2-18.75,8.46-17.22,17.48-16.64S1192.79,299.14,1192.16,308.91Z" transform="translate(-63.25 -122.61)"/><path class="cls-5" d="M1123,301.13c0,2,1.26,3.56,2.78,3.54s2.73-1.62,2.71-3.59-1.26-3.55-2.78-3.54S1123,299.16,1123,301.13Z" transform="translate(-63.25 -122.61)"/><path class="cls-5" d="M1136.43,290.77c-2.21-3-5.35-4.1-7.85-4.91-2.76-.9-5.49-1.79-6.66-.5a2.78,2.78,0,0,0-.14,3.14c.84,1.28,2.72,1.23,4.46,1.41,6.81.71,10.7,4.79,11.47,3.79C1138.15,293.12,1137,291.59,1136.43,290.77Z" transform="translate(-63.25 -122.61)"/><path class="cls-8" d="M1123.54,336.55s7.46-.31,12.32-5.29" transform="translate(-63.25 -122.61)"/><path class="cls-8" d="M1095.23,216.14c.5-.06,22.92-6.16,39.89,13" transform="translate(-63.25 -122.61)"/><path class="cls-8" d="M1229.67,230,1228,247.43s4.5-8.67,13.42-2.81" transform="translate(-63.25 -122.61)"/><path class="cls-5" d="M1117.58,248.91s-19,26.85-9.31,26.8c14.64-.08,29.13-19.11,26.47-20.1S1117.58,248.91,1117.58,248.91Z" transform="translate(-63.25 -122.61)"/><polyline class="cls-3" points="883.01 484.49 890.46 468.71 898.52 462.32"/><line class="cls-3" x1="878.56" y1="477.68" x2="887.19" y2="467.91"/><polyline class="cls-4" points="909.42 464.27 899.79 471.11 894.73 484.99"/><path class="cls-8" d="M1106,420.87s61.35-15.18,60,62.52l-2.82,93.15a82.84,82.84,0,0,1-23.36,1" transform="translate(-63.25 -122.61)"/><path class="cls-8" d="M1290,440.36s12.86,31.11,13.09,58.46c.12,14.7-10.82,48.7-10.82,48.7" transform="translate(-63.25 -122.61)"/><line class="cls-4" x1="909.44" y1="450.12" x2="919.96" y2="448.61"/><line class="cls-4" x1="693.47" y1="481.56" x2="806.01" y2="481.56"/></g><text x="-63.25" y="-122.61"/></g><g id="Planta"><ellipse class="cls-5" cx="689.2" cy="434.46" rx="30.13" ry="4.69"/><path class="cls-4" d="M744.94,613.21h15a64.58,64.58,0,0,0,13.19-1.82l8.35-54.14h-.09c0,2.49-13,4.51-29,4.51s-29-2-29-4.51h-.09l8.35,54.14A64.58,64.58,0,0,0,744.94,613.21Z" transform="translate(-63.25 -122.61)"/><path class="cls-6" d="M710.29,492.56a21.54,21.54,0,0,0-20.83,27.25,5,5,0,0,1,7.27,4.54,5,5,0,0,1-2.42,4.31,21.59,21.59,0,1,0,16-36.1Z" transform="translate(-63.25 -122.61)"/><path class="cls-4" d="M726.38,508.2a3,3,0,1,1-3-3A3,3,0,0,1,726.38,508.2Z" transform="translate(-63.25 -122.61)"/><circle class="cls-6" cx="784.97" cy="500.01" r="21.61" transform="translate(-135.04 740.95) rotate(-55.49)"/><path class="cls-12" d="M783.65,500.27s-31.08,18.07-28.5,54.13" transform="translate(-63.25 -122.61)"/><path class="cls-6" d="M742.46,493.24a21.61,21.61,0,1,0-.21-30.56A21.6,21.6,0,0,0,742.46,493.24Z" transform="translate(-63.25 -122.61)"/><path class="cls-12" d="M756.69,478.81s-21.61,53.43-1.69,80.26" transform="translate(-63.25 -122.61)"/><path class="cls-12" d="M711,514.16s34,11.7,38.45,47.57" transform="translate(-63.25 -122.61)"/><path class="cls-6" d="M777.12,509.2A21.54,21.54,0,0,1,798,536.45a5,5,0,0,0-7.27,4.54,5,5,0,0,0,2.42,4.31,21.59,21.59,0,1,1-16-36.1Z" transform="translate(-63.25 -122.61)"/><path class="cls-4" d="M761,524.84a3,3,0,1,0,3-3A3,3,0,0,0,761,524.84Z" transform="translate(-63.25 -122.61)"/><path class="cls-12" d="M781.51,526.09s-24,9.53-29.88,34.57" transform="translate(-63.25 -122.61)"/></g><g id="Estrella"><line class="cls-4" x1="918.01" y1="254.85" x2="918.01" y2="259.12"/><line class="cls-4" x1="904.38" y1="262.37" x2="908.08" y2="264.5"/><line class="cls-4" x1="904.08" y1="277.93" x2="907.78" y2="275.79"/><line class="cls-4" x1="917.4" y1="285.98" x2="917.4" y2="281.7"/><line class="cls-4" x1="931.03" y1="278.46" x2="927.33" y2="276.32"/><line class="cls-4" x1="931.34" y1="262.89" x2="927.64" y2="265.03"/><line class="cls-4" x1="852.05" y1="55.33" x2="852.05" y2="59.6"/><line class="cls-4" x1="838.42" y1="62.85" x2="842.12" y2="64.99"/><line class="cls-4" x1="838.11" y1="78.41" x2="841.82" y2="76.28"/><line class="cls-4" x1="851.44" y1="86.46" x2="851.44" y2="82.19"/><line class="cls-4" x1="865.07" y1="78.94" x2="861.37" y2="76.8"/><line class="cls-4" x1="865.38" y1="63.38" x2="861.68" y2="65.51"/><line class="cls-4" x1="517.05" y1="117.33" x2="517.05" y2="121.6"/><line class="cls-4" x1="503.42" y1="124.85" x2="507.12" y2="126.99"/><line class="cls-4" x1="503.11" y1="140.41" x2="506.82" y2="138.28"/><line class="cls-4" x1="516.44" y1="148.46" x2="516.44" y2="144.19"/><line class="cls-4" x1="530.07" y1="140.94" x2="526.37" y2="138.8"/><line class="cls-4" x1="530.38" y1="125.38" x2="526.68" y2="127.51"/><line class="cls-4" x1="571.05" y1="346.16" x2="571.05" y2="350.44"/><line class="cls-4" x1="557.42" y1="353.68" x2="561.12" y2="355.82"/><line class="cls-4" x1="557.11" y1="369.25" x2="560.82" y2="367.11"/><line class="cls-4" x1="570.44" y1="377.29" x2="570.44" y2="373.02"/><line class="cls-4" x1="584.07" y1="369.77" x2="580.37" y2="367.64"/><line class="cls-4" x1="584.38" y1="354.21" x2="580.68" y2="356.35"/></g><g id="Punto"><path class="cls-4" d="M866.9,269.35a3.72,3.72,0,1,1-3.72-3.72A3.72,3.72,0,0,1,866.9,269.35Z" transform="translate(-63.25 -122.61)"/><path class="cls-4" d="M1020.41,212.2a3.72,3.72,0,1,1-3.72-3.72A3.73,3.73,0,0,1,1020.41,212.2Z" transform="translate(-63.25 -122.61)"/><path class="cls-4" d="M786.72,278.5a3.72,3.72,0,1,1-3.72-3.72A3.73,3.73,0,0,1,786.72,278.5Z" transform="translate(-63.25 -122.61)"/><path class="cls-4" d="M947.72,131.5a3.72,3.72,0,1,1-3.72-3.72A3.73,3.73,0,0,1,947.72,131.5Z" transform="translate(-63.25 -122.61)"/></g><g id="Nube"><path class="cls-4" d="M291.43,152a9,9,0,1,0-3.1-17.65,14.38,14.38,0,0,0-27.91-.16,8.8,8.8,0,0,0-2-.23,9,9,0,0,0-.72,18Z" transform="translate(-63.25 -122.61)"/><path class="cls-4" d="M1123.43,160a9,9,0,1,0-3.1-17.65,14.38,14.38,0,0,0-27.91-.16,8.8,8.8,0,0,0-2-.23,9,9,0,0,0-.72,18Z" transform="translate(-63.25 -122.61)"/><path class="cls-13" d="M943.43,293a9,9,0,1,0-3.1-17.65,14.38,14.38,0,0,0-27.91-.16,9.41,9.41,0,0,0-2-.22,9,9,0,0,0-.72,18Z" transform="translate(-63.25 -122.61)"/><path class="cls-13" d="M769.43,208a9,9,0,1,0-3.1-17.64,14.38,14.38,0,0,0-27.91-.16,8.8,8.8,0,0,0-2-.23,9,9,0,0,0-.72,18Z" transform="translate(-63.25 -122.61)"/></g><g id="Letras"><text class="cls-14" transform="translate(234.71 317.35)">Review</text></g><g id="gorrito"><path class="cls-15" d="M694.34,261.2a32.94,32.94,0,0,0-27.45,46.4,4.28,4.28,0,0,1,.14,3.07l-3.25,10.05a2.53,2.53,0,0,0,3,3.24l9.47-2.37a4.22,4.22,0,0,1,3.29.47,33,33,0,1,0,14.77-60.86Z" transform="translate(-63.25 -122.61)"/><path class="cls-16" d="M712,290.26v12.41s-3.37,4.9-14.59,4.9-14.59-4.9-14.59-4.9V290.26" transform="translate(-63.25 -122.61)"/><line class="cls-17" x1="644.81" y1="169.75" x2="644.81" y2="188.88"/><path class="cls-16" d="M697.09,297.22,675,287.85a.92.92,0,0,1,0-1.71L697.13,278a.88.88,0,0,1,.64,0l22.06,8.18a.92.92,0,0,1,0,1.71l-22.06,9.37A.9.9,0,0,1,697.09,297.22Z" transform="translate(-63.25 -122.61)"/><path class="cls-5" d="M708.06,314.87a1.69,1.69,0,1,1,1.69-1.69A1.69,1.69,0,0,1,708.06,314.87Z" transform="translate(-63.25 -122.61)"/></g><g id="Letra_U" data-name="Letra U"><text class="cls-18" transform="translate(1.5 339.46)">U</text></g></svg>