<?xml version="1.0" encoding="utf-8"?>
<!-- Generator: Adobe Illustrator 25.2.3, SVG Export Plug-In . SVG Version: 6.00 Build 0)  -->
<svg version="1.1" id="Capa_1" xmlns="http://www.w3.org/2000/svg" xmlns:xlink="http://www.w3.org/1999/xlink" x="0px" y="0px"
	 viewBox="0 0 1200.1 536.4" style="enable-background:new 0 0 1200.1 536.4;" xml:space="preserve">
<style type="text/css">
	.st0{clip-path:url(#SVGID_2_);}
	.st1{fill:#FFFFFF;stroke:#335294;stroke-width:1.51;stroke-miterlimit:10;}
	.st2{fill:#FFFFFF;stroke:#335294;stroke-width:1.51;stroke-linejoin:round;}
	.st3{fill:#335294;}
	.st4{fill:#7CB7FF;stroke:#335294;stroke-width:1.51;stroke-miterlimit:10;}
	.st5{fill:none;stroke:#335294;stroke-width:1.51;stroke-linejoin:round;}
	.st6{fill:none;stroke:#335294;stroke-width:1.51;stroke-linecap:round;stroke-linejoin:round;}
	.st7{fill:none;stroke:#335294;stroke-width:1.51;stroke-miterlimit:10;}
	.st8{fill:#0080FF;stroke:#335294;stroke-width:1.51;stroke-miterlimit:10;}
	.st9{fill:none;stroke:#FFFFFF;stroke-width:3.03;stroke-miterlimit:10;}
	.st10{fill:#FFCE00;}
	.st11{fill:#0080FF;}
	.st12{font-family:'Poppins-ExtraBold';}
	.st13{font-size:191px;}
	.st14{fill:#FFFFFF;stroke:#335294;stroke-width:1.13;stroke-linejoin:round;}
	.st15{fill:#7CB7FF;stroke:#335294;stroke-width:1.13;stroke-miterlimit:10;}
	.st16{fill:none;stroke:#335294;stroke-width:1.13;stroke-miterlimit:10;}
	.st17{font-size:337px;}
	.st18{fill:none;stroke:#335294;stroke-width:3;stroke-miterlimit:10;}
</style>
<g id="Persona">
	<g>
		<defs>
			<path id="SVGID_1_" d="M359-84.3h800.1c22.6,0,41,18.4,41,41v538.7c0,22.6-18.4,41-41,41H359c-22.6,0-41-18.4-41-41V-43.3
				C318-65.9,336.3-84.3,359-84.3z"/>
		</defs>
		<clipPath id="SVGID_2_">
			<use xlink:href="#SVGID_1_"  style="overflow:visible;"/>
		</clipPath>
		<g class="st0">
			<path class="st1" d="M1141.3,244c-12.4-21.4-7.7-66.3-7.7-66.3l-2.8,2.6c12.5-32.6,2-45.8,2-45.8c-30.7-45.8-76.7-15.5-76.7-15.5
				s-33.8,5.4-21.3,45.8c0.8,2.8,1.2,5.7,1.2,8.6c-0.1,0.4-5.3,19.5-7.2,23.1c-1.3,2.6,5.4,6.2,9.3,8c8.8,38.2,10.7,36.9,10.7,36.9
				c15.4,0.7,27.8-1.8,37.8-6.3c1.4,7.2,2.8,14.9,2.8,14.9c3.3,26.3-33.8,43.3-33.8,43.3l70.5,26.6l70.1-44.7
				C1196.1,275.1,1156.5,270,1141.3,244z"/>
			<polygon class="st2" points="788.7,478.7 1024.4,457.3 1161.3,495.5 1161.9,505.3 926.3,526.7 789.3,488.4 			"/>
			<polygon class="st2" points="795.1,479.6 1026,466 990.7,321.2 990.7,321.2 765,331.8 			"/>
			<path class="st3" d="M887.9,331.4c0.1,1.4-1,2.6-2.4,2.7c-1.4,0.1-2.6-1-2.7-2.4c-0.1-1.2,0.7-2.4,2-2.6
				C886.3,328.9,887.7,329.9,887.9,331.4z"/>
			<polygon class="st2" points="765,331.8 990.7,321.2 765,331.8 795.1,479.6 788.7,479 760.7,336.2 			"/>
			<polygon class="st4" points="782.5,343.5 979.8,334.2 1006.1,448.7 808,466.5 			"/>
			<polygon class="st2" points="788.7,478.7 925.6,517 1161.3,495.5 1024.4,457.3 			"/>
			<polygon class="st2" points="890.4,500.8 822.1,481.8 1023.8,463.4 1090.1,481.9 			"/>
			<line class="st5" x1="836.7" y1="485.8" x2="1039.1" y2="467.7"/>
			<line class="st5" x1="853.7" y1="490.6" x2="1056.1" y2="472.5"/>
			<line class="st5" x1="870.7" y1="495.4" x2="1073.1" y2="477.3"/>
			<line class="st5" x1="846.5" y1="479.8" x2="913.4" y2="498.4"/>
			<line class="st6" x1="869.2" y1="477.8" x2="936" y2="496.4"/>
			<line class="st6" x1="888.6" y1="475.9" x2="955.4" y2="494.5"/>
			<line class="st6" x1="908" y1="474" x2="974.9" y2="492.6"/>
			<line class="st6" x1="927.4" y1="472.1" x2="994.3" y2="490.7"/>
			<line class="st6" x1="947.7" y1="470.5" x2="1013.7" y2="488.9"/>
			<line class="st6" x1="967.1" y1="468.6" x2="1033.7" y2="487.1"/>
			<line class="st6" x1="986.8" y1="466.8" x2="1053.2" y2="485.2"/>
			<line class="st6" x1="1006.9" y1="465.1" x2="1072.6" y2="483.3"/>
			<path class="st2" d="M890.8,359l74.1-4.5c0.6,0,1.1,0.4,1.2,0.9l7.4,29.6c0.2,0.7-0.2,1.3-0.9,1.5c-0.1,0-0.1,0-0.2,0l-61,4.5
				c-0.3,0-0.5,0.1-0.7,0.3l-9.3,10.8c-0.5,0.5-1.3,0.4-1.7-0.1c-0.2-0.2-0.3-0.4-0.3-0.6l-9.7-41.1c-0.1-0.7,0.3-1.3,1-1.4
				C890.7,359,890.7,359,890.8,359z"/>
			<polygon class="st2" points="902,414.8 978.2,408.9 983.3,426.5 979.7,426.8 976.3,427.2 906.5,433.5 			"/>
			<polygon class="st2" points="888.3,433.3 871.3,359.5 818.2,361.7 810.6,366.7 826.7,444.1 880.7,438.3 			"/>
			<polygon class="st2" points="818.2,361.7 871.3,359.5 888.3,433.3 834.3,439.1 			"/>
			<line class="st7" x1="826.7" y1="444.1" x2="834.3" y2="439.1"/>
			<path class="st3" d="M853.3,360.2l2.8,15.1c0,0.2,0.3,0.4,0.5,0.4c0.1,0,0.2-0.1,0.3-0.2l2.4-3.5c0.2-0.2,0.5-0.3,0.7-0.2
				c0,0,0,0,0.1,0l3.3,2.8c0.2,0.2,0.5,0.1,0.6-0.1c0.1-0.1,0.1-0.2,0.1-0.4l-3.2-14.3L853.3,360.2z"/>
			<line class="st6" x1="836.2" y1="393.5" x2="869.5" y2="390.9"/>
			<line class="st6" x1="837.3" y1="400.6" x2="870.6" y2="398"/>
			<line class="st6" x1="918.2" y1="368.2" x2="929.4" y2="367.4"/>
			<line class="st6" x1="918.6" y1="373.1" x2="960.2" y2="371"/>
			<line class="st6" x1="919.2" y1="378.3" x2="960.9" y2="376.2"/>
			<path class="st2" d="M911.9,373.2c0.8,3.5-1,6.8-3.9,7.5s-6-1.6-6.8-5.1c-0.8-3.5,1-6.8,3.9-7.5S911.1,369.7,911.9,373.2z"/>
			<path class="st3" d="M911.6,421c0.1,0.8-0.5,1.4-1.3,1.5s-1.4-0.5-1.5-1.3c0-0.7,0.4-1.3,1.1-1.5
				C910.7,419.6,911.4,420.2,911.6,421z"/>
			<path class="st3" d="M917.1,420.4c0.1,0.8-0.5,1.4-1.3,1.5c-0.8,0.1-1.4-0.5-1.5-1.3c0-0.7,0.4-1.3,1.1-1.5
				C916.2,419,917,419.6,917.1,420.4z"/>
			<path class="st3" d="M922.6,419.8c0.3,0.7-0.1,1.5-0.8,1.8c-0.7,0.3-1.5-0.1-1.8-0.8c0-0.1-0.1-0.3-0.1-0.4
				c-0.3-0.7,0.1-1.5,0.8-1.8c0.7-0.3,1.5,0.1,1.8,0.8C922.5,419.5,922.5,419.7,922.6,419.8z"/>
			<path class="st2" d="M1193.8,287.9c0,0-3.1-16.7-4.7,41.6c-1.5,54.5-2.2,111.7-2.2,111.7c-21.1,1.3-41.8,6.3-61.2,14.7l-20.5,8.5
				c0,0,53.1,29.4,90.9,41.2c34.8,10.8,38.1-15.8,33.9-80.3C1230.1,425.1,1210.3,292.5,1193.8,287.9z"/>
			<path class="st3" d="M1054.1,104.8c0,0-44.4,23.7-19,47.4l30.2-30.1L1054.1,104.8z"/>
			<path class="st3" d="M1120.4,218.2c0,0,10-0.3,15.9,13.2c0,0-6.6-15.3,4.9-28L1120.4,218.2z"/>
			<path class="st3" d="M1054.1,104.8c0,0-54.3,53.2-21.8,38.3c68-31.1,64.5,47.3,64.5,47.3s9.4-8.5,5.9,0.4l17.7,27.4
				c0,0,37.8-14.3,39.9-62C1161,140.1,1145.1,66.3,1054.1,104.8z"/>
			<path class="st3" d="M1077.4,136.3c1,8.1,0,40.6,14.4,43s-2.5-40.8-2.5-40.8L1077.4,136.3z"/>
			<path class="st2" d="M1031.8,310.9c-17.2,77.3-25.1,157.1-25.1,157.1s-34-9.6-66.2-14.8l-35.2-9.5c-1.1-0.5-13.3-6.2-17.3-10.1
				c-4.2-4.1-6.5,7.2,0.1,12.4c2,1.6,3.5,2.9,4.7,4.1l-8.5,1.3c-1.5,0.2-2.8,0.9-3.9,1.9c-5.9,5.4-25.2,23.1-21.5,24.2
				c1,0.3,2,0.3,3,0.1c-6.6,5.4-7.1,11.1-5.3,11.3c2.8,0.3,6.2-1.7,9.7-4.5c-3,3.5-6.8,11.3-2.6,11.1c5.7-0.3,10.4-4.7,14.9-12.1
				c0,0-1.1,1.9-0.6,1.5l-3.3,5.4c0,0,6.8,6,11.8,8.8c4.8,2.7,7.5-7.2,0.8-11.2c1.9-2.2,3.4-4.8,4.4-7.6c0,0,18.9,9.1,28.5,1.9
				l6.3,0.6c16.5,10.3,100.3,48,111.8,47.1c26.1-2,31-53.2,43.6-165.2C1081.9,364.9,1039.5,276.2,1031.8,310.9z"/>
			<path class="st7" d="M1006.6,468c0,0-8.1,4.3-9.8,16.3"/>
			<path class="st8" d="M1212.3,424.7c13.4-2.2,35.1-9.6,35.1-9.7s-8.3-104.8-34.8-135.8c-1.3-2.9-5.8-8.9-20-11
				c-4.2-0.6-8.3-1.4-12.3-2.2l0,0c-13.9-3-25.2-7.1-28.4-9.2c0,0,0,0.1,0,0.3l-0.2-0.1c0.4,2,0.2,4.1-0.3,6.1
				c-0.1,0.3-0.2,0.6-0.3,0.9c0,0.1-0.1,0.3-0.2,0.4c-0.2,0.5-0.5,1-0.7,1.4l0,0c-4.3,7.1-33.1,10-61.8-5.1c0,0-49.3,28-62.5,37.7
				c-20.2,43-28.8,140-28.8,135.5c0-1.2,41.1,20.3,67.8,21.5c0.1,7.6-6.5,103.8-6.5,103.8s116.2,5.9,167.7-21.5
				c0,0-20.3-67.6-17.9-86.4C1208.5,449,1211.8,430.2,1212.3,424.7z"/>
			<path class="st3" d="M1058.8,104.2c0,0-56.9-13.3-53.3,1.4s18.3,27.4,18.3,27.4s-16.8-0.4-8,8.1c8.8,8.5,16.2,7.9,16.2,7.9
				L1058.8,104.2z"/>
			<path class="st7" d="M1086.6,235c0,0,5.8-1.5,16.6-10.8"/>
			<path class="st9" d="M1097.1,166.1c0,0-4-73.3-42.5-64.3"/>
			
				<ellipse transform="matrix(6.435818e-02 -0.9979 0.9979 6.435818e-02 840.275 1267.4587)" class="st10" cx="1096.1" cy="185.6" rx="24.7" ry="24.1"/>
			<path class="st1" d="M1112.2,186.3c-0.6,9.8-8.5,17.2-17.5,16.6s-15.8-9-15.2-18.8s8.5-17.2,17.5-16.6S1112.9,176.5,1112.2,186.3
				z"/>
			<path class="st3" d="M1043.1,178.5c0,2,1.3,3.6,2.8,3.5s2.7-1.6,2.7-3.6s-1.3-3.5-2.8-3.5S1043.1,176.6,1043.1,178.5z"/>
			<path class="st3" d="M1056.5,168.2c-2.2-3-5.3-4.1-7.8-4.9c-2.8-0.9-5.5-1.8-6.7-0.5c-0.7,0.9-0.7,2.2-0.1,3.1
				c0.8,1.3,2.7,1.2,4.5,1.4c6.8,0.7,10.7,4.8,11.5,3.8C1058.2,170.5,1057.1,169,1056.5,168.2z"/>
			<path class="st7" d="M1043.6,213.9c0,0,7.5-0.3,12.3-5.3"/>
			<path class="st7" d="M1015.3,93.5c0.5-0.1,22.9-6.2,39.9,13"/>
			<path class="st7" d="M1149.8,107.4l-1.7,17.4c0,0,4.5-8.7,13.4-2.8"/>
			<path class="st3" d="M1037.7,126.3c0,0-19,26.9-9.3,26.8c14.6-0.1,29.1-19.1,26.5-20.1S1037.7,126.3,1037.7,126.3z"/>
			<polyline class="st1" points="866.3,484.5 873.8,468.7 881.9,462.3 			"/>
			<line class="st7" x1="861.9" y1="477.7" x2="870.5" y2="467.9"/>
			<polyline class="st2" points="892.8,464.3 883.1,471.1 878.1,485 			"/>
			<path class="st7" d="M1026.1,298.3c0,0,61.3-15.2,60,62.5l-2.8,93.2c-7.7,1.4-15.6,1.8-23.4,1"/>
			<path class="st7" d="M1210.1,317.8c0,0,12.9,31.1,13.1,58.5c0.1,14.7-10.8,48.7-10.8,48.7"/>
			<line class="st5" x1="892.8" y1="450.1" x2="903.3" y2="448.6"/>
			<line class="st5" x1="676.8" y1="481.6" x2="789.3" y2="481.6"/>
		</g>
	</g>
</g>
<g id="Planta">
	<ellipse class="st3" cx="672.5" cy="434.5" rx="30.1" ry="4.7"/>
	<path class="st2" d="M665,490.6h15c4.4-0.2,8.9-0.8,13.2-1.8l8.3-54.1h-0.1c0,2.5-13,4.5-29,4.5s-29-2-29-4.5h-0.1l8.3,54.1
		C656.1,489.8,660.5,490.5,665,490.6z"/>
	<path class="st4" d="M630.4,370c-11.9,0-21.6,9.6-21.6,21.5c0,1.9,0.3,3.9,0.8,5.8c2.5-1.3,5.5-0.3,6.7,2.2
		c0.4,0.7,0.6,1.5,0.5,2.4c0,1.8-0.9,3.4-2.4,4.3c8,8.8,21.7,9.5,30.5,1.5c8.8-8,9.5-21.7,1.5-30.5C642.3,372.5,636.5,370,630.4,370
		L630.4,370z"/>
	<path class="st2" d="M646.5,385.6c0,1.7-1.3,3-3,3s-3-1.3-3-3s1.3-3,3-3S646.5,383.9,646.5,385.6z"/>
	<circle class="st4" cx="705" cy="377.4" r="21.6"/>
	<path class="st5" d="M703.7,377.7c0,0-31.1,18.1-28.5,54.1"/>
	<path class="st4" d="M662.5,370.6c8.5,8.4,22.2,8.3,30.6-0.2s8.3-22.2-0.2-30.6c-8.5-8.4-22.2-8.3-30.6,0.2c0,0,0,0,0,0
		C654,348.6,654,362.2,662.5,370.6C662.5,370.6,662.5,370.6,662.5,370.6z"/>
	<path class="st5" d="M676.8,356.2c0,0-21.6,53.4-1.7,80.3"/>
	<path class="st5" d="M631.1,391.5c0,0,34,11.7,38.5,47.6"/>
	<path class="st4" d="M697.2,386.6c11.9-0.1,21.6,9.5,21.7,21.4c0,2-0.2,3.9-0.8,5.8c-2.5-1.3-5.5-0.3-6.7,2.2
		c-0.4,0.7-0.6,1.5-0.5,2.4c0,1.8,0.9,3.4,2.4,4.3c-8,8.8-21.7,9.5-30.5,1.5c-8.8-8-9.5-21.7-1.5-30.5
		C685.3,389.2,691.1,386.6,697.2,386.6L697.2,386.6z"/>
	<path class="st2" d="M681.1,402.2c0,1.7,1.3,3,3,3s3-1.3,3-3s-1.3-3-3-3S681.1,400.6,681.1,402.2z"/>
	<path class="st5" d="M701.6,403.5c0,0-24,9.5-29.9,34.6"/>
</g>
<g id="Estrella">
	<line class="st5" x1="901.3" y1="254.9" x2="901.3" y2="259.1"/>
	<line class="st5" x1="887.7" y1="262.4" x2="891.4" y2="264.5"/>
	<line class="st5" x1="887.4" y1="277.9" x2="891.1" y2="275.8"/>
	<line class="st5" x1="900.7" y1="286" x2="900.7" y2="281.7"/>
	<line class="st5" x1="914.4" y1="278.5" x2="910.7" y2="276.3"/>
	<line class="st5" x1="914.7" y1="262.9" x2="911" y2="265"/>
	<line class="st5" x1="835.4" y1="55.3" x2="835.4" y2="59.6"/>
	<line class="st5" x1="821.8" y1="62.8" x2="825.5" y2="65"/>
	<line class="st5" x1="821.4" y1="78.4" x2="825.2" y2="76.3"/>
	<line class="st5" x1="834.8" y1="86.5" x2="834.8" y2="82.2"/>
	<line class="st5" x1="848.4" y1="78.9" x2="844.7" y2="76.8"/>
	<line class="st5" x1="848.7" y1="63.4" x2="845" y2="65.5"/>
	<line class="st5" x1="500.4" y1="117.3" x2="500.4" y2="121.6"/>
	<line class="st5" x1="486.8" y1="124.8" x2="490.5" y2="127"/>
	<line class="st5" x1="486.4" y1="140.4" x2="490.2" y2="138.3"/>
	<line class="st5" x1="499.8" y1="148.5" x2="499.8" y2="144.2"/>
	<line class="st5" x1="513.4" y1="140.9" x2="509.7" y2="138.8"/>
	<line class="st5" x1="513.7" y1="125.4" x2="510" y2="127.5"/>
	<line class="st5" x1="554.4" y1="346.2" x2="554.4" y2="350.4"/>
	<line class="st5" x1="540.8" y1="353.7" x2="544.5" y2="355.8"/>
	<line class="st5" x1="540.4" y1="369.2" x2="544.2" y2="367.1"/>
	<line class="st5" x1="553.8" y1="377.3" x2="553.8" y2="373"/>
	<line class="st5" x1="567.4" y1="369.8" x2="563.7" y2="367.6"/>
	<line class="st5" x1="567.7" y1="354.2" x2="564" y2="356.4"/>
</g>
<g id="Punto">
	<path class="st2" d="M787,146.7c0,2.1-1.7,3.7-3.7,3.7c-2.1,0-3.7-1.7-3.7-3.7s1.7-3.7,3.7-3.7l0,0C785.3,143,787,144.7,787,146.7z
		"/>
	<path class="st2" d="M940.5,89.6c0,2.1-1.7,3.7-3.7,3.7c-2.1,0-3.7-1.7-3.7-3.7s1.7-3.7,3.7-3.7l0,0
		C938.8,85.9,940.5,87.5,940.5,89.6z"/>
	<path class="st2" d="M706.8,155.9c0,2.1-1.7,3.7-3.7,3.7c-2.1,0-3.7-1.7-3.7-3.7s1.7-3.7,3.7-3.7l0,0
		C705.1,152.2,706.8,153.8,706.8,155.9z"/>
	<path class="st2" d="M867.8,8.9c0,2.1-1.7,3.7-3.7,3.7c-2.1,0-3.7-1.7-3.7-3.7s1.7-3.7,3.7-3.7l0,0C866.1,5.2,867.8,6.8,867.8,8.9z
		"/>
</g>
<g id="Nube">
	<path class="st2" d="M211.5,29.4c5-0.4,8.7-4.7,8.3-9.7c-0.4-5-4.7-8.7-9.7-8.3c-0.6,0-1.1,0.1-1.7,0.3C206.5,4,198.8-0.7,191,1.2
		c-5.2,1.3-9.2,5.3-10.5,10.4c-0.7-0.2-1.3-0.2-2-0.2c-5-0.2-9.2,3.7-9.4,8.6s3.7,9.2,8.6,9.4l0,0L211.5,29.4z"/>
	<path class="st2" d="M1043.5,37.4c5-0.4,8.7-4.7,8.3-9.7c-0.4-5-4.7-8.7-9.7-8.3c-0.6,0-1.1,0.1-1.7,0.3
		c-1.9-7.7-9.6-12.5-17.4-10.6c-5.2,1.3-9.2,5.3-10.5,10.4c-0.7-0.2-1.3-0.2-2-0.2c-5-0.2-9.2,3.7-9.4,8.6s3.7,9.2,8.6,9.4
		L1043.5,37.4z"/>
	<path class="st2" d="M863.5,170.4c5-0.4,8.7-4.7,8.3-9.7c-0.4-5-4.7-8.7-9.7-8.3c-0.6,0-1.1,0.1-1.7,0.3
		c-1.9-7.7-9.6-12.5-17.4-10.6c-5.2,1.3-9.2,5.3-10.5,10.4c-0.7-0.1-1.3-0.2-2-0.2c-5-0.2-9.2,3.7-9.4,8.6s3.7,9.2,8.6,9.4
		L863.5,170.4z"/>
	<path class="st2" d="M689.5,85.4c5-0.4,8.7-4.7,8.3-9.6c-0.4-5-4.7-8.7-9.6-8.3c-0.6,0-1.2,0.1-1.8,0.3
		c-1.9-7.7-9.6-12.5-17.4-10.6c-5.2,1.3-9.2,5.3-10.5,10.4c-0.7-0.2-1.3-0.2-2-0.2c-5-0.2-9.2,3.7-9.4,8.6s3.7,9.2,8.6,9.4
		L689.5,85.4z"/>
</g>
<g id="Letras">
	<text transform="matrix(1 0 0 1 218.0433 317.35)" class="st11 st12 st13">Review</text>
	<text transform="matrix(1 0 0 1 218.0433 317.35)" class="st7 st12 st13">Review</text>
</g>
<g id="gorrito">
	<path class="st14" d="M614.4,138.6c-18.1,1.4-31.7,17.3-30.3,35.4c0.3,3.8,1.3,7.5,2.8,11c0.4,1,0.5,2.1,0.1,3.1l-3.2,10
		c-0.4,1.3,0.3,2.8,1.6,3.2c0.4,0.1,0.9,0.2,1.4,0.1l9.5-2.4c1.1-0.3,2.3-0.1,3.3,0.5c15.4,9.7,35.8,5,45.5-10.5
		c9.7-15.4,5-35.8-10.5-45.5C628.6,139.7,621.5,138,614.4,138.6L614.4,138.6z"/>
	<path class="st15" d="M632.1,167.7v12.4c0,0-3.4,4.9-14.6,4.9s-14.6-4.9-14.6-4.9v-12.4"/>
	<line class="st16" x1="628.1" y1="169.8" x2="628.1" y2="188.9"/>
	<path class="st15" d="M617.2,174.6l-22.1-9.4c-0.5-0.2-0.7-0.7-0.5-1.2c0.1-0.2,0.3-0.4,0.5-0.5l22.1-8.1c0.2-0.1,0.4-0.1,0.6,0
		l22.1,8.2c0.5,0.2,0.7,0.7,0.5,1.2c-0.1,0.2-0.3,0.4-0.5,0.5l-22.1,9.4C617.6,174.7,617.4,174.7,617.2,174.6z"/>
	<path class="st3" d="M628.1,192.3c-0.9,0-1.7-0.8-1.7-1.7s0.8-1.7,1.7-1.7s1.7,0.8,1.7,1.7S629.1,192.3,628.1,192.3L628.1,192.3z"
		/>
</g>
<g id="Letra_U">
	<text transform="matrix(1 0 0 1 -15.1667 339.46)" class="st10 st12 st17">U</text>
	<text transform="matrix(1 0 0 1 -15.1667 339.46)" class="st18 st12 st17">U</text>
</g>
</svg>
